<svg width="400" height="340" viewBox="0 0 400 340" fill="none" xmlns="http://www.w3.org/2000/svg">
  <rect x="50" y="50" width="260" height="230" rx="22" fill="#3d1a8e"/>
  <rect x="50" y="110" width="260" height="170" rx="0" fill="white"/>
  <rect x="50" y="240" width="260" height="40" rx="0" fill="white"/>
  <rect x="50" y="260" width="260" height="20" rx="0" fill="white"/>
  <rect x="50" y="265" width="260" height="15" rx="22" fill="white"/>
  <rect x="50" y="255" width="260" height="25" rx="0" fill="white"/>
  <rect x="50" y="260" width="260" height="20" rx="22" fill="white"/>
  <rect x="120" y="28" width="22" height="46" rx="11" fill="#3d1a8e" stroke="#FFF" stroke-width="2"/>
  <rect x="218" y="28" width="22" height="46" rx="11" fill="#3d1a8e" stroke="#FFF" stroke-width="2"/>
  <rect x="172" y="125" width="38" height="38" rx="6" fill="#7c6fa0"/>
  <rect x="220" y="125" width="38" height="38" rx="6" fill="#7c6fa0"/>
  <rect x="268" y="125" width="38" height="38" rx="6" fill="#7c6fa0"/>
  <rect x="76"  y="175" width="38" height="38" rx="6" fill="#7c6fa0"/>
  <rect x="124" y="175" width="38" height="38" rx="6" fill="#7c6fa0"/>
  <rect x="172" y="175" width="38" height="38" rx="6" fill="#7c6fa0"/>
  <rect x="220" y="175" width="38" height="38" rx="6" fill="#7c6fa0"/>
  <rect x="76" y="225" width="38" height="38" rx="6" fill="#7c6fa0"/>
  <rect x="124" y="225" width="38" height="38" rx="6" fill="#7c6fa0"/>
  <rect x="172" y="225" width="38" height="38" rx="6" fill="#7c6fa0"/>
  <circle cx="258" cy="252" r="75" fill="white"/>
  <circle cx="258" cy="252" r="70" fill="white" stroke="#e8004a" stroke-width="12"/>
  <line x1="258" y1="190" x2="258" y2="199" stroke="#3d1a8e" stroke-width="5" stroke-linecap="round"/>
  <line x1="258" y1="306" x2="258" y2="316" stroke="#3d1a8e" stroke-width="5" stroke-linecap="round"/>
  <line x1="195" y1="252" x2="205" y2="252" stroke="#3d1a8e" stroke-width="5" stroke-linecap="round"/>
  <line x1="312" y1="252" x2="321" y2="252" stroke="#3d1a8e" stroke-width="5" stroke-linecap="round"/>
  <line x1="258" y1="252" x2="228" y2="218" stroke="#3d1a8e" stroke-width="9" stroke-linecap="round"/>
  <line x1="258" y1="252" x2="300" y2="240" stroke="#3d1a8e" stroke-width="7" stroke-linecap="round"/>
  <line x1="258" y1="252" x2="290" y2="212" stroke="#ff4400" stroke-width="3" stroke-linecap="round"/>
  <circle cx="258" cy="252" r="7" fill="#e8004a"/>
</svg>